<svg xmlns="http://www.w3.org/2000/svg" viewBox="-149.85 -61.81525 1298.7 370.8915"><defs><clipPath clipPathUnits="userSpaceOnUse" id="b"><path d="M1386 894h427v106h-427z"/></clipPath><clipPath clipPathUnits="userSpaceOnUse" id="a"><path d="M1386.042 999.672h426.942V894h-426.942z"/></clipPath></defs><g clip-path="url(#a)" transform="matrix(2.3399 0 0 -2.3399 -3243.196 2339.129)"><g clip-path="url(#b)"><path d="M1665.852 938.488c-1.216 0-1.699 1.401-.314 2.995 4.43 3.148 6.171 4.12 6.41 4.238 2.855 0-2.613-7.233-6.096-7.233zm145.407 15.815a5.098 5.098 0 01-.762.527c-.058.044-.11.088-.18.132-2.222 1.43-4.652.794-4.652.794s.457-.83-1.803-2.676a2.893 2.893 0 01-.327-.307l-.194-.159c-8.225-6.696-19.192-12.007-30.626-14.247 3.7 2.172 12.46 10.447 6.372 14.91-3.549 2.603-9.84 1.46-15.777-1.52.688 1.11 2.321 3.472 1.663 6.311-.658 2.84-6.096 3.662-9.114 2.59-.1-2.935-.57-4.497-1.082-5.142-13.313-11.705-30.733-17.923-32.159-16.5-1.16 1.158 2.737 5.72 4.031 7.541 1.08 1.52 1.108 3.368.342 4.761-1.196 2.176-3.433 2.304-7.562 1.402-5.709-.972-9.76 1.07-13.17 6.262-1.675 2.547-5.744 2.036-7.837.642.521-1.645.38-3.309-.114-4.993-3.504-8.114-14.079-8.17-18.079-5.416-.57 1.698-2.07 4.836-5.09 5.296-9.335 1.425-12.543-4.295-14.073-6.038-3.316-3.78-25.763-13.594-31.01-9.335-3.862 3.133-.615 14.534 6.755 25.952 10.927 17.237 15.878 17.035 17.625 15.291 1.08-1.078 2.137-3.468-.06-7.693a33.287 33.287 0 00-.47-.868c-3.776-6.188-5.246-5.873-5.246-5.873-1.233-3.717.344-5.744 1.511-6.676 1.262-1.242 3.075-.818 3.63-.628 1.85.635 2.996 2.255 4.057 3.9 5.282 8.182 8.576 21.19-.078 25.894-6.195 3.367-16.624-1.18-28.164-19.855-10.25-16.588-13.149-29.65-5.758-35.842 8.997-7.535 27.906 2.407 34.126 5.284-.173-1.257.315-7.558 6.564-7.204 7.997.47 12.945 7.353 15.071 10.866 3.116-1.803 16.77-4.388 25.052 8.037.891-.754 5.88-4.376 12.528-4.376-2.352-4.299-5.377-9.456-.905-12.993 6.271-4.957 27.758 6.98 34.017 10.66-3.556-6.464-9.743-21.08-15.987-34.04-2.57-5.337-6.153-12.51-2.38-14.417 2.93-1.48 7.33.048 7.993 3.888.867 5.023 5.724 19.033 9.17 26.616 6.55 14.545 12.438 22.08 22.382 22.08-.617-1.187-.803-2.119-4.108-5.416-3.603-3.597-7.628-3.39-7.423-7.27.12-2.287 2.466-2.93 3.12-3.107 5.186-1.397 19.546 2.862 25.25 4.945 6.56 2.395 15.481 6.774 22.081 10.976 3.115 1.984 3.41 4.873.85 7.034zm-224.17 14.611c-5.523-.408-12.205-2.239-14.682-7.777-2.05-4.58-.435-9.407 3.868-14.828 2.76-3.364 5.285-6.23 6.003-7.01-1.985-.418-6.309-.267-10.65.526l-.054.01c-.99.183-1.98.402-2.944.652-2.45.773-3.124 1.76-3.124 1.76l-.358-.263V942l.358.246c-1.659-.228-3.038-1.38-4.016-2.65-.978-1.272-1.984-3.73-1.13-4.912.726-1.006 2.17-1.558 4.916-1.65 4.246-.2 15.686-1.712 19.914-2.184 3.264-.365 5.46 2 6.1 3.556.865 2.074-.026 4.361-1.122 5.625-5.428 6.263-13.03 13.104-10.272 18.823 1.264 2.621 7.371 2.093 9.387 1.495 4.302-1.279 6.437.277 7.415 3.156.63 1.851-.495 6.082-9.61 5.41zm-111.875-7.209c.772-.77-.876-2.508-2.327-3.45-3.98-2.58-7.99-4.077-10.85-5.134 3.104 6.35 12.091 10.093 13.177 8.584zm92.244-13.859c2.17 1.213 3.038 3.724 1.302 5.803-1.736 2.078-5.169 1.905-6.7.98-1.282-.772-2.769-2.105-7.188-2.333-4.16-.214-5.832 1.57-8.46 1.57-2.939 0-4.125-2.06-7.763-6.588-1.854-2.305-6.02-7.606-7.927-7.606-1.616 0-2.232 4.645-2.232 10.686 0 2.745-1.21 4.971-4.339 4.763-2.604-.173-3.038-3.55-4.399-5.137-4.077-4.743-7.354-9.379-9.019-9.379-2.052 0-2.843 4.48-2.843 7.934 0 0 .64 5.456-4.308 6.41-2.15.412-4.387-.779-4.387-.779.204-.413.265-.839.225-1.265-.627-2.288-4.927-5.554-4.927-5.554h.001c-4.6-3.368-13.785-9.288-22.068-9.727-9.676-.513-11.37 4.565-11.708 6.783 8.34 3.057 13.9 6.544 17.495 9.328 3.817 2.954 6.337 6.227 6.115 9.431-.302 4.337-4.243 5.905-7.368 5.905-6.726 0-17.89-2.896-23.259-17.623-1.155-.372-3.895-.39-5.356-.01-1.948.506-1.917 1.338-1.917 1.338-1.824-.47-2.61-1.36-3.252-2.939-1.027-2.525.33-4.7 2.415-5.857 1.51-.838 3.896-1.369 7.266-.973.474-4.464 3.442-12.608 19.284-11.993 12.582.488 27.31 10.823 28.632 11.631.56-2.579 2.335-11.829 7.684-11.829 6.425 0 13.014 9.575 13.014 9.575s1.676-9.638 8.133-9.638c5.386 0 12.146 8.374 13.832 10.368 1.403 1.66 4.127 4.85 5.616 4.85 1.457.247 4.344-1.682 12.618-.033.186.037 3.925.867 5.788 1.908zm-102.566 46.483c.58 1.528.077 3.387-.872 4.098-3.153 2.361-6.014 1.043-8.153-1.296-2.509-2.745-5.768-8.698-7.147-10.922-12.668-20.438-22.325-42.28-22.325-42.28s-3.353 10.171-3.817 18.252c-.438 7.62-.786 14.892-1.113 18.454-.106 1.426-.709 3.657-3.206 4.474-1.925.63-4.73.875-6.698.148-.158-2.432-.262-3.608-1.277-6.484-1.013-2.874-7.544-15.56-8.654-17.533-5.68-10.098-13.172-22.657-13.608-23.466-1.53-2.828-3.65-6.683-.015-8.046 3.635-1.363 6.822-.636 8.392 1.686.303.447.72 1.283.72 1.283s-1.056.867 1.206 6.137a365.605 365.605 0 002.371 4.804c.174.318.355.645.543.981.271.483.461.906.606 1.296 3.73 7.354 8.698 16.835 13.131 25.15-.034-4.84.373-10.828 1.037-15.178 1.012-8.484 3.095-12.063 3.871-18.83-.155-4.572.298-5.36 3.636-6.28 3.121-.86 4.94.001 6.112 2.88 4.508 11.361 17.467 37.456 28.474 51.614 1.151 1.481 5.523 5.732 6.786 9.058" fill="#100f0d"/></g></g></svg>